<svg xmlns="http://www.w3.org/2000/svg" viewBox="0 0 512 512" fill="none">
  <!-- Dark Blue Background -->
  <rect width="512" height="512" rx="90" fill="#2b3a52"/>
  
  <!-- Red Anchor - Classic Maritime Style -->
  <g transform="translate(256, 256) scale(0.7)">
    <!-- Top ring -->
    <circle cx="0" cy="-90" r="28" fill="none" stroke="#ef4444" stroke-width="18"/>
    
    <!-- Vertical shaft -->
    <rect x="-9" y="-65" width="18" height="140" fill="#ef4444"/>
    
    <!-- Horizontal crossbar -->
    <rect x="-70" y="45" width="140" height="18" fill="#ef4444"/>
    
    <!-- Left arm -->
    <path d="M -70 63 C -70 63 -70 100 -55 115 L -65 115 C -85 95 -85 63 -85 63 Z" fill="#ef4444"/>
    
    <!-- Right arm -->
    <path d="M 70 63 C 70 63 70 100 55 115 L 65 115 C 85 95 85 63 85 63 Z" fill="#ef4444"/>
    
    <!-- Left fluke (arrow point) -->
    <path d="M -55 115 L -65 125 L -45 115 Z" fill="#ef4444"/>
    
    <!-- Right fluke (arrow point) -->
    <path d="M 55 115 L 65 125 L 45 115 Z" fill="#ef4444"/>
  </g>
</svg>